<svg version="1.1" id="Layer_1" xmlns="http://www.w3.org/2000/svg" xmlns:xlink="http://www.w3.org/1999/xlink" x="0px" y="0px"
	 width="100%" viewBox="0 0 338 80" enable-background="new 0 0 338 80" xml:space="preserve">
<path fill="#FEFEFC" opacity="1.000000" stroke="none" 
	d="
M245.000000,81.000000 
	C163.333359,81.000000 82.166718,81.000000 1.000054,81.000000 
	C1.000036,54.333366 1.000036,27.666731 1.000018,1.000072 
	C113.666603,1.000048 226.333206,1.000048 338.999878,1.000024 
	C338.999908,27.666594 338.999908,54.333187 338.999939,80.999893 
	C307.833344,81.000000 276.666656,81.000000 245.000000,81.000000 
M222.015121,38.552418 
	C222.015121,35.798275 222.015121,33.044132 222.015121,30.153370 
	C217.967819,30.153370 214.675980,30.153370 211.294846,30.153370 
	C210.892670,31.434683 210.528122,32.596134 210.132858,33.855473 
	C201.390808,27.972679 193.815506,28.215042 187.849289,34.354904 
	C181.644684,40.740112 180.869278,53.732594 186.244675,61.241047 
	C191.508255,68.593315 198.911148,69.464882 209.936966,64.030411 
	C211.763916,67.657455 214.841431,68.276550 222.014297,66.304832 
	C222.014297,57.445473 222.014297,48.493160 222.015121,38.552418 
M301.959290,65.770203 
	C314.766541,70.765808 326.000793,66.397034 328.463898,55.086170 
	C323.640900,55.608482 318.970093,53.725521 314.326355,57.524609 
	C310.426147,60.715374 305.280334,57.432789 304.600525,51.624264 
	C312.902161,51.624264 321.153870,51.624264 329.294189,51.624264 
	C331.101471,42.176529 327.276917,34.429581 319.508545,31.084414 
	C310.440186,27.179440 299.442719,30.471336 295.014801,38.416142 
	C289.947510,47.508091 292.746277,59.494678 301.959290,65.770203 
M286.850372,50.498154 
	C286.850372,43.754288 286.850372,37.010418 286.850372,30.424120 
	C282.503296,30.424120 278.948822,30.424120 275.106140,30.424120 
	C275.106140,36.982517 275.151764,43.118202 275.093353,49.252899 
	C275.034485,55.438053 272.920715,58.035236 268.097504,58.054344 
	C263.246704,58.073559 261.077393,55.462936 261.023102,49.346149 
	C260.967407,43.075596 261.010742,36.804165 261.010742,30.271236 
	C257.066833,30.271236 253.674637,30.271236 250.055527,30.271236 
	C250.055527,39.290474 249.590210,48.078564 250.207001,56.790039 
	C250.676071,63.415119 257.458374,68.477097 264.082123,67.680801 
	C267.721924,67.243225 271.216217,65.595299 274.823334,64.478470 
	C275.993805,67.651779 279.440369,68.374626 286.849884,66.284027 
	C286.849884,61.424084 286.849884,56.460251 286.850372,50.498154 
M148.104553,54.413368 
	C148.517578,55.500656 148.944595,56.582863 149.341461,57.676022 
	C152.942062,67.593529 152.938354,67.477539 163.463104,67.283829 
	C166.363358,67.230453 167.469589,66.057953 168.328674,63.502960 
	C171.079834,55.320713 174.101135,47.229599 176.979553,39.089664 
	C177.990128,36.231903 178.888977,33.334641 179.993668,29.986105 
	C177.544327,29.986105 175.863220,30.186964 174.247009,29.948246 
	C169.498840,29.246929 167.095703,30.937645 166.030182,35.880634 
	C164.692688,42.085384 162.395386,48.083241 160.512314,54.170383 
	C158.832092,52.527279 158.161774,50.923878 157.651260,49.271118 
	C156.083588,44.195980 154.402603,39.145710 153.111359,33.999050 
	C152.318314,30.838070 150.755188,29.608490 147.530838,29.942051 
	C145.133270,30.190079 142.689468,29.990889 139.549408,29.990889 
	C142.516449,38.383358 145.215302,46.017246 148.104553,54.413368 
M55.001762,49.008083 
	C56.021130,38.771366 54.369167,29.523527 44.444569,24.075718 
	C35.515926,19.174608 25.842751,21.020260 16.507317,21.132814 
	C16.507317,36.839111 16.507317,51.877647 16.507317,67.154747 
	C22.086998,67.154747 27.239084,67.282852 32.382755,67.129227 
	C44.734062,66.760376 51.105507,61.819004 55.001762,49.008083 
M109.348579,36.262325 
	C102.617165,29.493364 93.689537,28.064550 86.189400,32.555840 
	C79.032562,36.841545 75.741837,46.029388 78.207832,54.840694 
	C80.537102,63.163448 87.291420,68.177376 95.991005,68.041626 
	C104.088432,67.915283 110.128601,63.441467 111.765152,56.358078 
	C106.946548,55.658798 106.946548,55.658798 103.881058,59.167706 
	C100.758347,62.742119 95.990784,63.826180 91.132446,61.791439 
	C86.875534,60.008583 84.131073,57.031803 84.358803,51.287537 
	C93.952713,51.287537 103.321976,51.287537 114.386139,51.287537 
	C112.618233,45.713474 111.211990,41.279701 109.348579,36.262325 
M230.018982,44.499962 
	C230.018982,51.919216 230.018982,59.338474 230.018982,66.857513 
	C234.204651,66.857513 237.743332,66.857513 241.423340,66.857513 
	C241.423340,50.463959 241.423340,34.447636 241.423340,18.339539 
	C237.533295,18.339539 233.982376,18.339539 230.018997,18.339539 
	C230.018997,26.956154 230.018997,35.228065 230.018982,44.499962 
M132.916595,67.355217 
	C134.534378,67.355217 136.152161,67.355217 137.905640,67.355217 
	C137.905640,65.422462 137.905640,64.004036 137.905640,62.297779 
	C136.033752,62.200180 134.249756,62.501308 132.821899,61.923035 
	C131.363205,61.332260 129.209457,59.923500 129.160751,58.795097 
	C128.835434,51.259636 128.991867,43.703384 128.991867,36.233784 
	C138.218689,35.583931 138.218689,35.583931 137.543564,31.094748 
	C134.844467,30.963037 132.088791,30.828566 129.104233,30.682926 
	C128.913620,27.641396 128.741592,24.896536 128.574921,22.237141 
	C122.952515,20.943434 122.952515,20.943434 122.092796,29.126013 
	C120.325027,30.878265 117.970993,32.323383 118.164406,33.217400 
	C118.497276,34.756126 120.417023,35.951557 122.327988,37.993271 
	C122.327988,43.538139 122.152863,50.185093 122.374252,56.818817 
	C122.626221,64.368576 124.852165,66.576553 132.916595,67.355217 
M69.747536,59.362083 
	C69.747536,49.968121 69.747536,40.574162 69.747536,31.226219 
	C67.130539,31.226219 65.381035,31.226219 63.423286,31.226219 
	C63.423286,43.285995 63.423286,55.023266 63.423286,67.083389 
	C65.548851,67.083389 67.419014,67.083389 69.747360,67.083389 
	C69.747360,64.573402 69.747360,62.443806 69.747536,59.362083 
M62.884003,22.670563 
	C64.831512,23.131067 66.779015,23.591574 68.726524,24.052080 
	C69.137146,22.303125 70.122375,20.419563 69.755333,18.852787 
	C69.512733,17.817192 66.359238,16.374668 66.168076,16.589647 
	C64.750519,18.183760 63.749027,20.147852 62.884003,22.670563 
z"/>
<path fill="#8F8752" opacity="1.000000" stroke="none" 
	d="
M222.014709,39.046631 
	C222.014297,48.493160 222.014297,57.445473 222.014297,66.304832 
	C214.841431,68.276550 211.763916,67.657455 209.936966,64.030411 
	C198.911148,69.464882 191.508255,68.593315 186.244675,61.241047 
	C180.869278,53.732594 181.644684,40.740112 187.849289,34.354904 
	C193.815506,28.215042 201.390808,27.972679 210.132858,33.855473 
	C210.528122,32.596134 210.892670,31.434683 211.294846,30.153370 
	C214.675980,30.153370 217.967819,30.153370 222.015121,30.153370 
	C222.015121,33.044132 222.015121,35.798275 222.014709,39.046631 
M204.759842,57.504654 
	C209.640091,55.645695 210.903381,51.791595 210.314194,47.081493 
	C209.835434,43.254234 207.840103,40.587677 203.815628,39.906258 
	C198.586746,39.020916 194.553375,42.502640 194.227615,48.131527 
	C193.874924,54.225574 197.471985,57.751057 204.759842,57.504654 
z"/>
<path fill="#918955" opacity="1.000000" stroke="none" 
	d="
M301.634277,65.572289 
	C292.746277,59.494678 289.947510,47.508091 295.014801,38.416142 
	C299.442719,30.471336 310.440186,27.179440 319.508545,31.084414 
	C327.276917,34.429581 331.101471,42.176529 329.294189,51.624264 
	C321.153870,51.624264 312.902161,51.624264 304.600525,51.624264 
	C305.280334,57.432789 310.426147,60.715374 314.326355,57.524609 
	C318.970093,53.725521 323.640900,55.608482 328.463898,55.086170 
	C326.000793,66.397034 314.766541,70.765808 301.634277,65.572289 
M307.641388,39.776253 
	C306.385040,41.211456 305.128693,42.646656 303.294800,44.741577 
	C309.036346,44.741577 313.396973,44.741577 317.816711,44.741577 
	C316.630676,39.340099 314.845245,38.377335 307.641388,39.776253 
z"/>
<path fill="#908853" opacity="1.000000" stroke="none" 
	d="
M286.850128,50.997284 
	C286.849884,56.460251 286.849884,61.424084 286.849884,66.284027 
	C279.440369,68.374626 275.993805,67.651779 274.823334,64.478470 
	C271.216217,65.595299 267.721924,67.243225 264.082123,67.680801 
	C257.458374,68.477097 250.676071,63.415119 250.207001,56.790039 
	C249.590210,48.078564 250.055527,39.290474 250.055527,30.271236 
	C253.674637,30.271236 257.066833,30.271236 261.010742,30.271236 
	C261.010742,36.804165 260.967407,43.075596 261.023102,49.346149 
	C261.077393,55.462936 263.246704,58.073559 268.097504,58.054344 
	C272.920715,58.035236 275.034485,55.438053 275.093353,49.252899 
	C275.151764,43.118202 275.106140,36.982517 275.106140,30.424120 
	C278.948822,30.424120 282.503296,30.424120 286.850372,30.424120 
	C286.850372,37.010418 286.850372,43.754288 286.850128,50.997284 
z"/>
<path fill="#8F8753" opacity="1.000000" stroke="none" 
	d="
M148.009354,54.032249 
	C145.215302,46.017246 142.516449,38.383358 139.549408,29.990889 
	C142.689468,29.990889 145.133270,30.190079 147.530838,29.942051 
	C150.755188,29.608490 152.318314,30.838070 153.111359,33.999050 
	C154.402603,39.145710 156.083588,44.195980 157.651260,49.271118 
	C158.161774,50.923878 158.832092,52.527279 160.512314,54.170383 
	C162.395386,48.083241 164.692688,42.085384 166.030182,35.880634 
	C167.095703,30.937645 169.498840,29.246929 174.247009,29.948246 
	C175.863220,30.186964 177.544327,29.986105 179.993668,29.986105 
	C178.888977,33.334641 177.990128,36.231903 176.979553,39.089664 
	C174.101135,47.229599 171.079834,55.320713 168.328674,63.502960 
	C167.469589,66.057953 166.363358,67.230453 163.463104,67.283829 
	C152.938354,67.477539 152.942062,67.593529 149.341461,57.676022 
	C148.944595,56.582863 148.517578,55.500656 148.009354,54.032249 
z"/>
<path fill="#918A57" opacity="1.000000" stroke="none" 
	d="
M54.955750,49.442787 
	C51.105507,61.819004 44.734062,66.760376 32.382755,67.129227 
	C27.239084,67.282852 22.086998,67.154747 16.507317,67.154747 
	C16.507317,51.877647 16.507317,36.839111 16.507317,21.132814 
	C25.842751,21.020260 35.515926,19.174608 44.444569,24.075718 
	C54.369167,29.523527 56.021130,38.771366 54.955750,49.442787 
M48.727291,39.310738 
	C44.913849,27.649019 36.513828,23.546076 22.442057,26.572855 
	C22.442057,38.276527 22.442057,50.009247 22.442057,62.042648 
	C26.560032,62.042648 30.381721,62.307739 34.153553,61.986824 
	C41.735714,61.341721 46.457657,57.456799 48.288074,50.028614 
	C49.064774,46.876614 48.725533,43.449623 48.727291,39.310738 
z"/>
<path fill="#928A59" opacity="1.000000" stroke="none" 
	d="
M109.577164,36.554127 
	C111.211990,41.279701 112.618233,45.713474 114.386139,51.287537 
	C103.321976,51.287537 93.952713,51.287537 84.358803,51.287537 
	C84.131073,57.031803 86.875534,60.008583 91.132446,61.791439 
	C95.990784,63.826180 100.758347,62.742119 103.881058,59.167706 
	C106.946548,55.658798 106.946548,55.658798 111.765152,56.358078 
	C110.128601,63.441467 104.088432,67.915283 95.991005,68.041626 
	C87.291420,68.177376 80.537102,63.163448 78.207832,54.840694 
	C75.741837,46.029388 79.032562,36.841545 86.189400,32.555840 
	C93.689537,28.064550 102.617165,29.493364 109.577164,36.554127 
M101.419708,36.856365 
	C91.791046,33.508644 84.928955,37.136921 84.510056,45.849327 
	C91.884552,45.849327 99.250832,45.849327 108.395935,45.849327 
	C105.792229,42.244308 103.956161,39.702148 101.419708,36.856365 
z"/>
<path fill="#918A56" opacity="1.000000" stroke="none" 
	d="
M230.018982,43.999969 
	C230.018997,35.228065 230.018997,26.956154 230.018997,18.339539 
	C233.982376,18.339539 237.533295,18.339539 241.423340,18.339539 
	C241.423340,34.447636 241.423340,50.463959 241.423340,66.857513 
	C237.743332,66.857513 234.204651,66.857513 230.018982,66.857513 
	C230.018982,59.338474 230.018982,51.919216 230.018982,43.999969 
z"/>
<path fill="#948E5D" opacity="1.000000" stroke="none" 
	d="
M132.508820,67.306931 
	C124.852165,66.576553 122.626221,64.368576 122.374252,56.818817 
	C122.152863,50.185093 122.327988,43.538139 122.327988,37.993271 
	C120.417023,35.951557 118.497276,34.756126 118.164406,33.217400 
	C117.970993,32.323383 120.325027,30.878265 122.092796,29.126013 
	C122.952515,20.943434 122.952515,20.943434 128.574921,22.237141 
	C128.741592,24.896536 128.913620,27.641396 129.104233,30.682926 
	C132.088791,30.828566 134.844467,30.963037 137.543564,31.094748 
	C138.218689,35.583931 138.218689,35.583931 128.991867,36.233784 
	C128.991867,43.703384 128.835434,51.259636 129.160751,58.795097 
	C129.209457,59.923500 131.363205,61.332260 132.821899,61.923035 
	C134.249756,62.501308 136.033752,62.200180 137.905640,62.297779 
	C137.905640,64.004036 137.905640,65.422462 137.905640,67.355217 
	C136.152161,67.355217 134.534378,67.355217 132.508820,67.306931 
z"/>
<path fill="#9A9364" opacity="1.000000" stroke="none" 
	d="
M69.747452,59.838146 
	C69.747360,62.443806 69.747360,64.573402 69.747360,67.083389 
	C67.419014,67.083389 65.548851,67.083389 63.423286,67.083389 
	C63.423286,55.023266 63.423286,43.285995 63.423286,31.226219 
	C65.381035,31.226219 67.130539,31.226219 69.747536,31.226219 
	C69.747536,40.574162 69.747536,49.968121 69.747452,59.838146 
z"/>
<path fill="#948E5E" opacity="1.000000" stroke="none" 
	d="
M62.750420,22.333141 
	C63.749027,20.147852 64.750519,18.183760 66.168076,16.589647 
	C66.359238,16.374668 69.512733,17.817192 69.755333,18.852787 
	C70.122375,20.419563 69.137146,22.303125 68.726524,24.052080 
	C66.779015,23.591574 64.831512,23.131067 62.750420,22.333141 
z"/>
<path fill="#FBFBF6" opacity="1.000000" stroke="none" 
	d="
M204.386795,57.613800 
	C197.471985,57.751057 193.874924,54.225574 194.227615,48.131527 
	C194.553375,42.502640 198.586746,39.020916 203.815628,39.906258 
	C207.840103,40.587677 209.835434,43.254234 210.314194,47.081493 
	C210.903381,51.791595 209.640091,55.645695 204.386795,57.613800 
z"/>
<path fill="#F9FAF1" opacity="1.000000" stroke="none" 
	d="
M307.981354,39.568832 
	C314.845245,38.377335 316.630676,39.340099 317.816711,44.741577 
	C313.396973,44.741577 309.036346,44.741577 303.294800,44.741577 
	C305.128693,42.646656 306.385040,41.211456 307.981354,39.568832 
z"/>
<path fill="#FDFDFA" opacity="1.000000" stroke="none" 
	d="
M48.810379,39.729176 
	C48.725533,43.449623 49.064774,46.876614 48.288074,50.028614 
	C46.457657,57.456799 41.735714,61.341721 34.153553,61.986824 
	C30.381721,62.307739 26.560032,62.042648 22.442057,62.042648 
	C22.442057,50.009247 22.442057,38.276527 22.442057,26.572855 
	C36.513828,23.546076 44.913849,27.649019 48.810379,39.729176 
z"/>
<path fill="#FBFAF6" opacity="1.000000" stroke="none" 
	d="
M101.769905,37.008179 
	C103.956161,39.702148 105.792229,42.244308 108.395935,45.849327 
	C99.250832,45.849327 91.884552,45.849327 84.510056,45.849327 
	C84.928955,37.136921 91.791046,33.508644 101.769905,37.008179 
z"/>
</svg>