<?xml version="1.0" encoding="UTF-8"?>
<svg version="1.1" xmlns="http://www.w3.org/2000/svg" width="268" height="55">
<path d="M0 0 C2.64 0 5.28 0 8 0 C8 2.64 8 5.28 8 8 C9.36125 7.7525 9.36125 7.7525 10.75 7.5 C16.13782475 6.71126689 21.56912556 6.91974077 27 7 C27.34933594 8.12019531 27.69867188 9.24039062 28.05859375 10.39453125 C28.51821405 11.86719222 28.9778503 13.33984821 29.4375 14.8125 C29.66759766 15.55048828 29.89769531 16.28847656 30.13476562 17.04882812 C31.0687184 20.04018411 32.00899104 23.02697312 33 26 C33.176521 25.45996338 33.35304199 24.91992676 33.53491211 24.36352539 C34.33266495 21.92881836 35.13501879 19.49565242 35.9375 17.0625 C36.21529297 16.21236328 36.49308594 15.36222656 36.77929688 14.48632812 C37.18051758 13.27299805 37.18051758 13.27299805 37.58984375 12.03515625 C37.83597412 11.2862915 38.08210449 10.53742676 38.33569336 9.76586914 C39 8 39 8 40 7 C42.01964199 6.92755947 44.04167124 6.91622812 46.0625 6.9375 C47.71958984 6.95103516 47.71958984 6.95103516 49.41015625 6.96484375 C50.26480469 6.97644531 51.11945313 6.98804688 52 7 C50.02732509 14.70793989 47.63135559 22.16365649 44.875 29.625 C44.51535156 30.61628906 44.15570313 31.60757813 43.78515625 32.62890625 C41.13484172 39.86515828 41.13484172 39.86515828 40 41 C37.64686445 41.07271741 35.29166332 41.08370868 32.9375 41.0625 C31.64714844 41.05347656 30.35679688 41.04445312 29.02734375 41.03515625 C28.02832031 41.02355469 27.02929688 41.01195312 26 41 C24.49223384 36.89864435 22.99512424 32.79347933 21.5 28.6875 C21.07074219 27.52025391 20.64148438 26.35300781 20.19921875 25.15039062 C19.59013672 23.47299805 19.59013672 23.47299805 18.96875 21.76171875 C18.59169922 20.73006592 18.21464844 19.69841309 17.82617188 18.63549805 C17 16 17 16 17 13 C16.443125 13.165 15.88625 13.33 15.3125 13.5 C13 14 13 14 8 14 C8 20.93 8 27.86 8 35 C10.64 35 13.28 35 16 35 C16 36.98 16 38.96 16 41 C5.96855346 41.62264151 5.96855346 41.62264151 2.375 39.3125 C-0.59698977 34.31415356 -0.2895624 28.35654825 -0.5625 22.6875 C-0.62727539 21.43356445 -0.62727539 21.43356445 -0.69335938 20.15429688 C-0.79885307 18.10303065 -0.89987315 16.0515352 -1 14 C-1.66 14 -2.32 14 -3 14 C-3 12.02 -3 10.04 -3 8 C-2.01 8 -1.02 8 0 8 C0 5.36 0 2.72 0 0 Z " fill="#FFFFFF" transform="translate(90,8)"/>
<path d="M0 0 C0.99 0.66 1.98 1.32 3 2 C3.33 1.34 3.66 0.68 4 0 C7.63 0 11.26 0 15 0 C15 11.22 15 22.44 15 34 C11.37 34 7.74 34 4 34 C3.67 33.34 3.34 32.68 3 32 C2.319375 32.495 1.63875 32.99 0.9375 33.5 C-2.71831169 35.36679746 -4.93308428 35.42809639 -9 35 C-13.66974139 33.26029242 -16.44218761 31.2934708 -19 27 C-21.67371967 19.13044364 -21.10721715 12.61580899 -17.6875 5.125 C-12.99247276 -0.78725653 -7.122022 -0.84890974 0 0 Z M-8 12 C-9.00697968 15.81213736 -9.27791912 18.18361258 -8 21.9375 C-6.06146427 24.3481697 -6.06146427 24.3481697 -2.5 24.5625 C0.95205992 24.29661343 0.95205992 24.29661343 3 22.4375 C4.43452262 18.94085111 3.92093323 16.61795196 3 13 C1.89350331 10.97521537 1.89350331 10.97521537 0 10 C-3.74849077 9.53143865 -4.76746204 9.84497469 -8 12 Z " fill="#FFFFFF" transform="translate(161,15)"/>
<path d="M0 0 C3.96 0 7.92 0 12 0 C12.33 7.92 12.66 15.84 13 24 C19.4 23.8 19.4 23.8 21 22 C21.14481287 20.45184595 21.22702845 18.89771646 21.28125 17.34375 C21.31863281 16.40402344 21.35601562 15.46429688 21.39453125 14.49609375 C21.42933594 13.50738281 21.46414062 12.51867187 21.5 11.5 C21.56857628 9.5519257 21.64126787 7.60399041 21.71875 5.65625 C21.76418945 4.35397461 21.76418945 4.35397461 21.81054688 3.02539062 C22 1 22 1 23 0 C26.63 0 30.26 0 34 0 C34 11.22 34 22.44 34 34 C29 34 24 34 19 34 C17.56220501 34.22730854 16.12473055 34.4566495 14.6875 34.6875 C10.23704916 35.17155878 7.69664389 34.7509908 4 32 C-0.84947836 25.65431235 -0.47966376 19.83131817 -0.25 12.0625 C-0.23195312 10.90169922 -0.21390625 9.74089844 -0.1953125 8.54492188 C-0.14842089 5.69625655 -0.07668563 2.84801901 0 0 Z " fill="#FFFFFF" transform="translate(195,15)"/>
<path d="M0 0 C4.54805493 2.41524116 6.71764692 5.43378138 8.44921875 10.15625 C8.89202241 13.16731488 8.76171875 16.23780018 8.76171875 19.28125 C1.17171875 19.28125 -6.41828125 19.28125 -14.23828125 19.28125 C-11.80385277 23.50588984 -11.80385277 23.50588984 -8.67578125 23.65625 C-6.06300016 23.50021136 -6.06300016 23.50021136 -4.23828125 21.28125 C-1.41796875 21.0859375 -1.41796875 21.0859375 1.88671875 21.15625 C2.98242188 21.17429687 4.078125 21.19234375 5.20703125 21.2109375 C6.05007813 21.23414062 6.893125 21.25734375 7.76171875 21.28125 C7.00262461 26.16230695 5.58036357 28.0566166 1.76171875 31.28125 C-2.80903346 34.22684587 -6.88166311 35.02868509 -12.23828125 34.28125 C-18.11180827 32.4893265 -20.78979788 30.14969711 -24.23828125 25.28125 C-26.20853582 19.3704863 -26.04290226 12.65276456 -24.05078125 6.78125 C-18.34576448 -1.08773865 -9.15284281 -2.93913277 0 0 Z M-13.23828125 10.28125 C-13.23828125 10.94125 -13.23828125 11.60125 -13.23828125 12.28125 C-9.93828125 12.28125 -6.63828125 12.28125 -3.23828125 12.28125 C-5.05050659 10.2187506 -5.05050659 10.2187506 -7.23828125 8.28125 C-10.42318132 8.0038999 -10.42318132 8.0038999 -13.23828125 10.28125 Z " fill="#FFFFFF" transform="translate(256.23828125,15.71875)"/>
<path d="M0 0 C22.88888889 0 22.88888889 0 30.875 6.25 C34.77103267 11.29192463 36.57405648 16.59479359 36.28515625 22.98828125 C35.20051357 30.64021251 31.77934811 34.88759567 25.875 39.75 C18.15972965 44.89351357 9.61958059 42 0 42 C0 28.14 0 14.28 0 0 Z M6 6 C6 15.9 6 25.8 6 36 C17.32646915 36.92607549 17.32646915 36.92607549 25 32 C27.8550872 28.75110767 28.88656554 26.15703148 29.3125 21.8125 C28.8600443 16.29254043 27.00687548 11.88524666 22.9375 8.0625 C16.98935814 4.80061575 14.05445371 6 6 6 Z " fill="#FFFFFF" transform="translate(4,7)"/>
<path d="M0 0 C3.88446678 2.58964452 6.69907021 5.64814041 8.8125 9.875 C8.8125 12.845 8.8125 15.815 8.8125 18.875 C0.5625 18.875 -7.6875 18.875 -16.1875 18.875 C-14.29266518 24.09244318 -14.29266518 24.09244318 -10.1875 26.875 C-7.23029372 27.54180368 -7.23029372 27.54180368 -4.1875 26.875 C-2.9809375 25.6375 -2.9809375 25.6375 -1.75 24.375 C0.8125 21.875 0.8125 21.875 4.625 21.5625 C5.676875 21.665625 6.72875 21.76875 7.8125 21.875 C7.5124825 25.37520422 6.85516259 26.82404191 4.5625 29.5625 C0.20536592 33.22645366 -3.29985217 34.36191373 -9.06640625 34.1875 C-14.35616655 33.40816147 -18.116796 31.08297374 -21.625 27.125 C-24.62472684 20.88556818 -24.62523737 15.48857178 -22.90625 8.91796875 C-21.31005753 4.38096516 -19.07892226 2.37213933 -14.9375 0.0625 C-9.53204522 -1.64922735 -5.47657778 -1.93290981 0 0 Z M-15.1875 8.875 C-15.5175 10.195 -15.8475 11.515 -16.1875 12.875 C-10.2475 12.875 -4.3075 12.875 1.8125 12.875 C-0.35826354 7.36743935 -0.35826354 7.36743935 -5.1875 4.875 C-9.7955151 4.06859736 -11.95422128 5.64172128 -15.1875 8.875 Z " fill="#FFFFFF" transform="translate(77.1875,16.125)"/>
<path d="M0 0 C3.63 0 7.26 0 11 0 C12 1 12 1 12.12025452 2.79066467 C12.1169236 3.95981667 12.1169236 3.95981667 12.11352539 5.15258789 C12.11344986 6.03342545 12.11337433 6.914263 12.11329651 7.8217926 C12.10813522 8.77907761 12.10297394 9.73636261 12.09765625 10.72265625 C12.0962413 11.69786728 12.09482635 12.67307831 12.09336853 13.67784119 C12.08775133 16.80609143 12.07519593 19.93427123 12.0625 23.0625 C12.05748722 25.17773334 12.05292393 27.29296781 12.04882812 29.40820312 C12.03777631 34.60549607 12.02050016 39.80273608 12 45 C8.04 45 4.08 45 0 45 C0 30.15 0 15.3 0 0 Z " fill="#FFFFFF" transform="translate(180,4)"/>
<path d="M0 0 C2.31 0 4.62 0 7 0 C7 10.89 7 21.78 7 33 C4.69 33 2.38 33 0 33 C0 22.11 0 11.22 0 0 Z " fill="#FFFFFF" transform="translate(43,16)"/>
<path d="M0 0 C1.1446875 0.3403125 1.1446875 0.3403125 2.3125 0.6875 C2.9375 3.5625 2.9375 3.5625 3.3125 6.6875 C2.6525 7.3475 1.9925 8.0075 1.3125 8.6875 C-1.8125 8.3125 -1.8125 8.3125 -4.6875 7.6875 C-5.375 5.375 -5.375 5.375 -5.6875 2.6875 C-4.0011022 -0.12316299 -3.27764429 -0.38112143 0 0 Z " fill="#FFFFFF" transform="translate(47.6875,3.3125)"/>
</svg>
