<?xml version="1.0" encoding="UTF-8"?>
<svg version="1.1" xmlns="http://www.w3.org/2000/svg" width="230" height="58">
<path d="M0 0 C75.9 0 151.8 0 230 0 C230 19.14 230 38.28 230 58 C154.1 58 78.2 58 0 58 C0 38.86 0 19.72 0 0 Z " fill="#8B8450" transform="translate(0,0)"/>
<path d="M0 0 C18.96 0 18.96 0 23.484375 4.46484375 C27.86267659 9.49497114 28.34915475 12.74488995 28.28125 19.23828125 C27.75919674 24.36455419 25.12436465 26.98532946 21.4375 30.3125 C14.44590865 35.15283247 10.15797959 33 0 33 C0 22.11 0 11.22 0 0 Z " fill="#F1F1EB" transform="translate(12,14)"/>
<path d="M0 0 C2.4375 1.5 2.4375 1.5 4 3 C4.33 2.34 4.66 1.68 5 1 C7.64 1 10.28 1 13 1 C13 9.58 13 18.16 13 27 C10.36 27 7.72 27 5 27 C4.67 26.34 4.34 25.68 4 25 C3.01 25.66 2.02 26.32 1 27 C-3.47208083 27.72022276 -6.98669453 27.58211165 -10.9375 25.3125 C-14.87065997 20.90259337 -15.40268767 16.89894792 -15.25 11.14453125 C-14.75277177 6.8792453 -12.65305634 4.6711968 -9.75 1.6875 C-6.21089292 -0.4842248 -4.08814328 -0.52030915 0 0 Z " fill="#FBFAF9" transform="translate(138,20)"/>
<path d="M0 0 C1.32 0 2.64 0 4 0 C4 2.31 4 4.62 4 7 C9.28 7 14.56 7 20 7 C22.4375 14.4375 22.4375 14.4375 23.20092773 16.78295898 C24.1195296 20.15695204 24.1195296 20.15695204 26 23 C26.41572266 21.39318359 26.41572266 21.39318359 26.83984375 19.75390625 C27.20554924 18.35672373 27.57144446 16.95959085 27.9375 15.5625 C28.11990234 14.85544922 28.30230469 14.14839844 28.49023438 13.41992188 C29.88671875 8.11328125 29.88671875 8.11328125 31 7 C33.67058851 6.85884839 36.32432238 6.95752893 39 7 C37.36231563 16.00726401 34.13020303 24.42639358 31 33 C27.37 33 23.74 33 20 33 C17.36 25.41 14.72 17.82 12 10 C11.67 10.33 11.34 10.66 11 11 C8.69 11 6.38 11 4 11 C4.33 16.61 4.66 22.22 5 28 C6.98 28.33 8.96 28.66 11 29 C11 30.32 11 31.64 11 33 C3.47991846 33.36984008 3.47991846 33.36984008 1.390625 31.75976562 C-0.37220868 29.52898873 -0.34966133 28.3665129 -0.29296875 25.55078125 C-0.28330078 24.70322266 -0.27363281 23.85566406 -0.26367188 22.98242188 C-0.23853516 22.10134766 -0.21339844 21.22027344 -0.1875 20.3125 C-0.17396484 19.41982422 -0.16042969 18.52714844 -0.14648438 17.60742188 C-0.11114079 15.40433834 -0.06180493 13.20247418 0 11 C-1.32 11 -2.64 11 -4 11 C-4 9.68 -4 8.36 -4 7 C-2.68 7 -1.36 7 0 7 C0 4.69 0 2.38 0 0 Z " fill="#FBFBF9" transform="translate(83,14)"/>
<path d="M0 0 C4.38773175 2.19386588 7.09334197 4.44520582 9 9 C9 11.31 9 13.62 9 16 C2.73 16 -3.54 16 -10 16 C-9.01 17.32 -8.02 18.64 -7 20 C-3.87413125 20.33397787 -3.87413125 20.33397787 -1 20 C-1 19.34 -1 18.68 -1 18 C1.97 18 4.94 18 8 18 C6.82191948 21.3529984 5.80593388 23.7552529 3 26 C-1.72862677 27.57620892 -7.3026876 28.32393541 -11.91796875 26.05859375 C-15.14898086 23.5136731 -17.07479051 20.97840079 -18 17 C-18.45737957 12.19751457 -18.5084495 9.99806753 -16.3125 5.6875 C-11.57487727 0.18161413 -7.09308949 -1.12588722 0 0 Z " fill="#F7F7F4" transform="translate(214,20)"/>
<path d="M0 0 C2.97 0 5.94 0 9 0 C9 8.91 9 17.82 9 27 C6.03 27 3.06 27 0 27 C0 26.34 0 25.68 0 25 C-0.495 25.33 -0.99 25.66 -1.5 26 C-5.01428464 27.40571385 -8.30929948 27.73228185 -12 27 C-15.21954645 24.46546343 -16.70432435 22.88702695 -18 19 C-18.08021999 17.59175107 -18.10765977 16.18002769 -18.09765625 14.76953125 C-18.09282227 13.56586914 -18.09282227 13.56586914 -18.08789062 12.33789062 C-18.07951172 11.50451172 -18.07113281 10.67113281 -18.0625 9.8125 C-18.05798828 8.96751953 -18.05347656 8.12253906 -18.04882812 7.25195312 C-18.03705403 5.16793845 -18.0191189 3.08396023 -18 1 C-15.36 1 -12.72 1 -10 1 C-9.93941406 2.13179687 -9.87882813 3.26359375 -9.81640625 4.4296875 C-9.73200083 5.91147145 -9.64735283 7.3932416 -9.5625 8.875 C-9.52318359 9.62136719 -9.48386719 10.36773437 -9.44335938 11.13671875 C-9.28426376 15.19986864 -9.28426376 15.19986864 -8 19 C-6.00045254 19.04254356 -3.99958364 19.04080783 -2 19 C-0.48578999 17.48578999 -0.78690144 16.07527232 -0.68359375 13.96484375 C-0.64169922 13.15595703 -0.59980469 12.34707031 -0.55664062 11.51367188 C-0.51732422 10.66353516 -0.47800781 9.81339844 -0.4375 8.9375 C-0.39431641 8.08349609 -0.35113281 7.22949219 -0.30664062 6.34960938 C-0.20023298 4.23327963 -0.09958269 2.11666187 0 0 Z " fill="#F6F5F2" transform="translate(185,20)"/>
<path d="M0 0 C3.42949055 2.01698455 6.20893285 4.4178657 8 8 C8 10.31 8 12.62 8 15 C1.07 15 -5.86 15 -13 15 C-10.83333333 20.83333333 -10.83333333 20.83333333 -8 22 C-5.0842309 22.41702122 -5.0842309 22.41702122 -2 22 C-0.64631404 20.68733482 0.68799596 19.35432675 2 18 C4.75 17.75 4.75 17.75 7 18 C6.11593727 20.97366555 5.31696033 22.7127547 3 24.8125 C-1.38534655 26.54836634 -5.35132041 26.79585395 -10 26 C-13.41414661 24.30339954 -15.46117565 21.9306966 -17.375 18.625 C-18.55486736 13.6695571 -18.70150652 10.30279782 -16.25 5.75 C-11.52961005 -0.01936549 -7.34606187 -1.43090469 0 0 Z " fill="#F4F4EF" transform="translate(70,21)"/>
<path d="M0 0 C12.55555556 0 12.55555556 0 16 3 C18.28219901 6.42329851 18.29741163 7.84137668 18.3125 11.875 C18.32925781 12.90367188 18.34601562 13.93234375 18.36328125 14.9921875 C17.94638298 18.44392583 17.11683067 20.25719909 15 23 C11 25 11 25 0 25 C0 16.75 0 8.5 0 0 Z " fill="#8B844F" transform="translate(17,18)"/>
<path d="M0 0 C2.64 0 5.28 0 8 0 C8 11.55 8 23.1 8 35 C5.36 35 2.72 35 0 35 C0 23.45 0 11.9 0 0 Z " fill="#FCFBFA" transform="translate(155,12)"/>
<path d="M0 0 C1.32 0 2.64 0 4 0 C4 2.31 4 4.62 4 7 C6.64 7 9.28 7 12 7 C11.67 8.32 11.34 9.64 11 11 C8.69 11 6.38 11 4 11 C4.33 16.61 4.66 22.22 5 28 C6.98 28.33 8.96 28.66 11 29 C11 30.32 11 31.64 11 33 C3.47991846 33.36984008 3.47991846 33.36984008 1.390625 31.75976562 C-0.37220868 29.52898873 -0.34966133 28.3665129 -0.29296875 25.55078125 C-0.28330078 24.70322266 -0.27363281 23.85566406 -0.26367188 22.98242188 C-0.23853516 22.10134766 -0.21339844 21.22027344 -0.1875 20.3125 C-0.17396484 19.41982422 -0.16042969 18.52714844 -0.14648438 17.60742188 C-0.11114079 15.40433834 -0.06180493 13.20247418 0 11 C-1.32 11 -2.64 11 -4 11 C-4 9.68 -4 8.36 -4 7 C-2.68 7 -1.36 7 0 7 C0 4.69 0 2.38 0 0 Z " fill="#F5F4F0" transform="translate(83,14)"/>
<path d="M0 0 C2.9375 0.8125 2.9375 0.8125 4.9375 3.8125 C5.26252803 6.93276907 5.44901479 8.95997535 3.8125 11.6875 C1.02643958 13.35913625 -0.88238862 13.27626624 -4.0625 12.8125 C-6 11.25 -6 11.25 -7.0625 8.8125 C-6.9375 5.1875 -6.9375 5.1875 -6.0625 1.8125 C-3.0625 -0.1875 -3.0625 -0.1875 0 0 Z " fill="#928B5A" transform="translate(138.0625,27.1875)"/>
<path d="M0 0 C1.32 0 2.64 0 4 0 C4 8.58 4 17.16 4 26 C2.68 26 1.36 26 0 26 C0 17.42 0 8.84 0 0 Z " fill="#FCFCFA" transform="translate(44,21)"/>
<path d="M0 0 C2 1.3125 2 1.3125 3 3 C3 4.32 3 5.64 3 7 C-2.28 7 -7.56 7 -13 7 C-12 2 -12 2 -10.4375 0.125 C-6.82273143 -1.54335472 -3.77805291 -1.05079603 0 0 Z " fill="#908A58" transform="translate(70,25)"/>
<path d="M0 0 C5.75 -0.125 5.75 -0.125 8 1 C8 1.99 8 2.98 8 4 C4.7 4 1.4 4 -2 4 C-1.34 2.68 -0.68 1.36 0 0 Z " fill="#928B5A" transform="translate(206,27)"/>
<path d="M0 0 C1.65 0.33 3.3 0.66 5 1 C4.67 2.65 4.34 4.3 4 6 C2.0625 5.6875 2.0625 5.6875 0 5 C-0.33 4.01 -0.66 3.02 -1 2 C-0.67 1.34 -0.34 0.68 0 0 Z " fill="#F1F0EA" transform="translate(44,11)"/>
</svg>
